@startuml

entity Artist {
    * id : VARCHAR
    --
    * name : VARCHAR
    intagram : VARCHAR
    facebook : VARCHAR
    twitter : VARCHAR
    wikipedia : VAdRCHAR
    bio : TEXT
}

entity Album {
    * id : VARCHAR 
    --
    * title : VARCHAR
    * release : YEAR
    * image : VARCHAR

}

entity Song {
    * id : VARCHAR
    --
    * album_id : VARCHAR
    * title : VARCHAR
    * duration : INT
}

entity PlaylistCategory {
    * id : VARCHAR
    --
    * name : VARCHAR
    * image : VARCHAR
    * icon : VARCHAR
}

entity Playlist {
    * id : VARCHAR
    --
    * name : VARCHAR
    description : TEXT
    image : VARCHAR
    * user_id : VARCHAR
}

entity PodcastCategory {
    * id : VARCHAR
    --
    * name : VARCHAR
    * image : VARCHAR
    * icon : VARCHAR
}

entity Podcast {
      * id : VARCHAR
    --
    * name : VARCHAR
    about : TEXT
    image : VARCHAR
    category_id : VARCHAR
    * user_id : VARCHAR
    
}

entity Episode {
    * id : VARCHAR
    --
    *  podcatt_id : VARCHAR
    * title : VARCHAR
    description : TEXT
    published_at : DATE
    duration : TIME
}

entity User {
    * id : VARCHAR
    --
    * email : VARCHAR
    * name : VARCHAR
    birthday : DATE
}

entity Concert {
    * id : VARCHAR
    --
    * event_at : DATETIME
    * url : VARCHAR
    * location : VARCHAR
    lon : DOUBLE
    lat : DOUBLE
}

' relasi table
' many to many  
Artist }|--|{ Album : Has
' one to many
Album ||--|{ Song : Contains
' many to many
Artist }|--|{ Song : Sing
' 0 atau 1 ke 1 atau banyak
PlaylistCategory |o--|{ Playlist
'playlist wajib punya 1 user
User ||--o{ Playlist : Create
' bisa saja playlist tidak memiliki lagu, begitupun sebalikya
Playlist }o--o{ Song : Contains
PodcastCategory ||--o{ Podcast : Contains
User ||--o{ Podcast : Create
Podcast ||--o{ Episode : Contains
Artist }|--o{ Concert: Perform
User }o--o{ Artist : Follow 
User }o--o{ Song : Liked Song
User }o--o{ Playlist : Follow


@enduml